<?xml version="1.0" encoding="utf-8"?>
<!-- Generator: Adobe Illustrator 22.1.0, SVG Export Plug-In . SVG Version: 6.00 Build 0)  -->
<svg version="1.1" id="Layer_1" xmlns="http://www.w3.org/2000/svg" xmlns:xlink="http://www.w3.org/1999/xlink" x="0px" y="0px"
	 viewBox="0 0 64 64" style="enable-background:new 0 0 64 64;" xml:space="preserve">
<style type="text/css">
	.st0{fill:#2F2F2F;}
	.st1{fill:#FFFFFF;}
</style>
<title>help</title>
<g id="Layer_2_1_">
	<g id="SYMBOLS">
		<g id="help">
			<path class="st0" d="M61.9,23.8c-0.7-2.6-1.8-5.1-3.1-7.4c-2.7-4.6-6.5-8.4-11.1-11.1c-2.3-1.3-4.8-2.4-7.4-3.1
				c-5.4-1.5-11.1-1.5-16.5,0c-2.6,0.7-5.1,1.8-7.4,3.1c-4.6,2.7-8.4,6.5-11.1,11.1c-1.3,2.3-2.4,4.8-3.1,7.4
				c-1.5,5.4-1.5,11.1,0,16.5c0.7,2.6,1.8,5.1,3.1,7.4c2.7,4.6,6.5,8.4,11.1,11.1c2.3,1.3,4.8,2.4,7.4,3.1c5.4,1.5,11.1,1.5,16.5,0
				c2.6-0.7,5.1-1.8,7.4-3.1c4.6-2.7,8.4-6.5,11.1-11.1c1.3-2.3,2.4-4.8,3.1-7.4C63.4,34.8,63.4,29.2,61.9,23.8z"/>
			<path class="st1" d="M35.2,27.7c1-0.8,1.6-1.9,1.6-3.1c0.2-2.3-1.6-4.3-3.9-4.5c-0.3,0-0.6,0-0.9,0c-3.1,0-4.8,1.6-4.8,4.5h-4.9
				V23h0.2c0.9-4.5,5-7.8,9.6-7.8c5.2,0,9.5,4.1,9.6,9.3c-0.1,2.5-1.2,4.8-3,6.6c-0.9,0.9-1.9,1.7-3,2.3c-1,0.8-1.7,2-1.7,3.3v3.7
				h-4.5v-3.7c-0.2-2.4,0.7-4.8,2.5-6.4"/>
			<rect x="29.5" y="44.3" class="st1" width="4.5" height="3.9"/>
		</g>
	</g>
</g>
</svg>
