<?xml version="1.0" encoding="utf-8"?>
<!-- Generator: Adobe Illustrator 22.1.0, SVG Export Plug-In . SVG Version: 6.00 Build 0)  -->
<svg version="1.1" id="Layer_1" xmlns="http://www.w3.org/2000/svg" xmlns:xlink="http://www.w3.org/1999/xlink" x="0px" y="0px"
	 viewBox="0 0 64 64" style="enable-background:new 0 0 64 64;" xml:space="preserve">
<style type="text/css">
	.st0{fill:#D2D2D2;}
	.st1{fill:#C2C2C2;}
	.st2{fill:#D73910;}
	.st3{fill:#0078D4;}
</style>
<title>list_123</title>
<g id="Layer_2_1_">
	<g id="SYMBOLS">
		<g id="list_123">
			<rect x="16.9" y="45.1" class="st0" width="45.1" height="3.8"/>
			<rect x="16.9" y="30" class="st0" width="45.1" height="3.8"/>
			<rect x="16.9" y="15" class="st0" width="45.1" height="3.8"/>
			<rect x="16.9" y="30" class="st1" width="45.1" height="3.8"/>
			<rect x="16.9" y="45.1" class="st1" width="45.1" height="3.8"/>
			<rect x="16.9" y="15" class="st1" width="45.1" height="3.8"/>
			<path class="st2" d="M3.5,12.9c0.6-0.2,1.2-0.5,1.7-0.7c0.6-0.3,1.1-0.6,1.6-1h1.4v11.3H5.7V14c-0.3,0.3-0.7,0.5-1.1,0.6
				c-0.4,0.2-0.8,0.3-1.2,0.4v-2.1H3.5z"/>
			<path class="st2" d="M2,36.3c0-0.4,0.1-0.8,0.3-1.1C2.6,34.5,3,34,3.5,33.5s1-0.9,1.5-1.3c0.5-0.3,0.9-0.7,1.3-1.2
				c0.4-0.4,0.6-0.9,0.6-1.4c0-0.4-0.1-0.8-0.5-1.1c-0.3-0.2-0.8-0.3-1.2-0.3c-0.5,0-0.9,0.1-1.4,0.3C3.4,28.8,3,29,2.6,29.4v-2.2
				c0.9-0.6,2-1,3.2-1c0.5,0,0.9,0.1,1.4,0.2C7.6,26.5,8,26.7,8.3,27c0.4,0.3,0.6,0.7,0.8,1.1s0.3,0.9,0.3,1.4
				c0,0.6-0.1,1.1-0.4,1.6c-0.2,0.4-0.5,0.9-0.9,1.2c-0.3,0.4-0.7,0.7-1.1,1l-1.1,0.8c-0.3,0.2-0.6,0.5-0.9,0.7
				c-0.2,0.2-0.3,0.5-0.4,0.8h4.7v1.9H2C2,37.1,2,36.7,2,36.3z"/>
			<path class="st2" d="M6.5,48.4C6.2,48.2,5.9,48,5.6,48c-0.4-0.1-0.7-0.1-1.1-0.1h-1V46h0.9c0.3,0,0.7,0,1-0.1
				c0.3,0,0.6-0.2,0.8-0.4c0.2-0.2,0.4-0.6,0.3-0.9c0-0.4-0.1-0.8-0.5-1.1c-0.4-0.2-0.8-0.3-1.2-0.3c-0.8,0-1.5,0.2-2.2,0.7v-2
				c0.4-0.2,0.9-0.4,1.3-0.5c0.5-0.1,0.9-0.1,1.4-0.1c0.4,0,0.9,0.1,1.3,0.2C7,41.6,7.4,41.8,7.8,42c0.3,0.2,0.6,0.5,0.8,0.9
				s0.4,0.8,0.3,1.3c0,0.6-0.2,1.3-0.6,1.8c-0.4,0.5-1,0.8-1.6,0.9l0,0c0.7,0.1,1.4,0.3,1.9,0.8s0.8,1.2,0.7,1.9
				c0,0.5-0.1,1.1-0.4,1.6c-0.2,0.4-0.6,0.8-1,1c-0.4,0.3-0.9,0.5-1.4,0.6S5.5,53,4.9,53c-0.5,0-1,0-1.4-0.1
				c-0.5-0.1-0.9-0.2-1.4-0.4v-2.2c0.4,0.3,0.8,0.5,1.2,0.6s0.9,0.2,1.4,0.2c0.4,0,0.9-0.1,1.3-0.3c0.4-0.2,0.7-0.7,0.6-1.2
				C6.9,49,6.8,48.7,6.5,48.4z"/>
			<path class="st3" d="M5.7,13.9v8.5h2.5V11.2H6.8c-0.5,0.4-1,0.7-1.6,1c-0.6,0.2-1.1,0.5-1.7,0.7V15c0.4,0,0.9-0.1,1.3-0.3
				C5.1,14.5,5.4,14.2,5.7,13.9z"/>
			<path class="st3" d="M4.9,50.9c-0.5,0-0.9-0.1-1.4-0.2c-0.4-0.1-0.8-0.4-1.2-0.6v2.1c0.4,0.2,0.9,0.4,1.4,0.4
				c0.5,0.1,0.9,0.1,1.4,0.1s1.1-0.1,1.6-0.2c0.5,0,0.9-0.2,1.3-0.5c0.4-0.3,0.7-0.6,1-1c0.3-0.5,0.4-1,0.4-1.6
				c0.1-0.7-0.2-1.4-0.7-1.9s-1.2-0.7-1.9-0.8l0,0c0.6-0.1,1.2-0.4,1.6-0.9C8.8,45.3,9,44.7,9,44.1c0-0.4-0.1-0.9-0.3-1.3
				c-0.2-0.3-0.5-0.6-0.8-0.9c-0.4-0.2-0.7-0.4-1.2-0.5c-0.4-0.1-0.8-0.1-1.3-0.2c-0.5,0-0.9,0.1-1.4,0.1c-0.5,0.1-0.9,0.3-1.3,0.5
				v2c0.6-0.5,1.4-0.7,2.2-0.7c0.4,0,0.8,0.1,1.2,0.3c0.3,0.2,0.5,0.7,0.5,1.1c0,0.3-0.1,0.7-0.3,0.9c-0.2,0.2-0.5,0.3-0.8,0.4
				c-0.3,0.1-0.7,0.1-1,0.1H3.4v1.9h1c0.4,0,0.8,0,1.1,0.1c0.3,0.1,0.6,0.2,0.9,0.4s0.4,0.6,0.4,1c0.1,0.5-0.2,1-0.6,1.2
				C5.9,50.8,5.4,50.9,4.9,50.9z"/>
			<path class="st3" d="M9.4,35.6H4.7c0-0.3,0.1-0.6,0.4-0.8c0.3-0.3,0.6-0.5,0.9-0.7l1-0.8c0.4-0.3,0.8-0.6,1.1-1
				C8.5,32,8.8,31.6,9,31.1s0.4-1,0.4-1.6c0-0.5-0.1-1-0.3-1.4s-0.4-0.7-0.8-1c-0.3-0.3-0.7-0.5-1.1-0.6c-0.5-0.2-0.9-0.3-1.4-0.3
				c-1.2,0-2.3,0.3-3.3,0.9v2.2c0.4-0.3,0.9-0.6,1.4-0.8c0.5-0.2,1-0.3,1.5-0.3c0.4,0,0.8,0.1,1.2,0.3C6.8,28.8,7,29.2,7,29.7
				s-0.2,1-0.6,1.4s-0.8,0.8-1.3,1.2c-0.5,0.4-1,0.8-1.5,1.3s-0.9,1-1.2,1.7c-0.2,0.4-0.3,0.7-0.3,1.1c0,0.4,0,0.8,0,1.2h7.3
				C9.4,37.6,9.4,35.6,9.4,35.6z"/>
		</g>
	</g>
</g>
</svg>
